<svg width="98" height="99" viewBox="0 0 98 99" fill="none" xmlns="http://www.w3.org/2000/svg">
<rect width="97.2966" height="98.1501" rx="12" fill="#18181D"/>
<rect x="0.354693" y="0.354693" width="96.5872" height="97.4407" rx="11.6453" stroke="white" stroke-opacity="0.05" stroke-width="0.709385"/>
<path d="M71.8764 31.8023H69.0431V30.427H71.8764V27.6075H73.2517V30.427H76.0712V31.8023H73.2517V34.6356H71.8764V31.8023Z" fill="white" fill-opacity="0.2"/>
<path d="M41.4535 31.3974C40.8605 31.4001 40.3351 31.7794 40.1504 32.3433L38.8487 36.2416H31.7527C29.2278 36.2416 27.1525 38.3155 27.1525 40.8417V60.2034C27.1525 62.7296 29.2278 64.8145 31.7527 64.8145H63.9287C66.4536 64.8145 68.5206 62.7296 68.5206 60.2034V40.8417C68.5206 38.3155 66.4536 36.2416 63.9287 36.2416H55.2676L53.9742 32.342C53.7867 31.7766 53.2558 31.3933 52.6601 31.396H41.4535V31.3974ZM59.1052 41.0761H62.3209C63.0834 41.0927 63.686 41.7229 63.6695 42.484C63.6529 43.2218 63.06 43.8175 62.3209 43.834H59.1052C58.344 43.8147 57.7401 43.1845 57.7566 42.4234C57.7732 41.6856 58.3675 41.0927 59.1052 41.0761ZM47.8366 41.9821C52.5263 41.9821 56.3556 45.8252 56.3556 50.5219C56.3556 55.2185 52.5263 59.0616 47.8366 59.0616C43.1468 59.0616 39.3258 55.2185 39.3258 50.5219C39.3258 45.8252 43.1468 41.9821 47.8366 41.9821ZM47.8366 44.7427C44.6416 44.7427 42.0754 47.3117 42.0754 50.5219C42.0754 53.732 44.6402 56.3037 47.8366 56.3037C51.0329 56.3037 53.5977 53.732 53.5977 50.5219C53.5977 47.3117 51.0315 44.7427 47.8366 44.7427Z" fill="white" fill-opacity="0.2"/>
</svg>
